# AST/ASF file generated using VICON BodyLanguage
# -----------------------------------------------
:version 1.10
:name VICON
:units
  mass 1.0
  length 0.45
  angle deg
:documentation
   .ast/.asf automatically generated from VICON data using
   VICON BodyBuilder and BodyLanguage model FoxedUp or BRILLIANT.MOD
:root
   order TX TY TZ RX RY RZ
   axis XYZ
   position 0 0 0  
   orientation 0 0 0 
:bonedata
  begin
     id 1 
     name lhipjoint
     direction 0.623529 -0.717805 0.309788 
     length 2.23224 
     axis 0 0 0  XYZ
  end
  begin
     id 2 
     name lfemur
     direction 0.34202 -0.939693 0  
     length 7.11402  
     axis 0 0 20  XYZ
    dof rx ry rz
    limits (-160.0 20.0)
           (-70.0 70.0)
           (-60.0 70.0)
  end
  begin
     id 3 
     name ltibia
     direction 0.34202 -0.939693 0   
     length 6.78496   
     axis 0 0 20   XYZ
    dof rx
    limits (-10.0 170.0)
  end
  begin
     id 4 
     name lfoot
     direction 0.125078 -0.343648 0.930732   
     length 1.84054   
     axis -90 7.62852e-016 20   XYZ
    dof rx rz
    limits (-45.0 90.0)
           (-70.0 20.0)
  end
  begin
     id 5 
     name ltoes
     direction 1.53565e-011 -4.21893e-011 1   
     length 0.916474   
     axis -90 7.62852e-016 20   XYZ
    dof rx
    limits (-90.0 20.0)
  end
  begin
     id 6 
     name rhipjoint
     direction -0.564688 -0.757748 0.327026   
     length 2.11457  
     axis 0 0 0  XYZ 
  end
  begin
     id 7 
     name rfemur
     direction -0.34202 -0.939693 0   
     length 7.14609   
     axis 0 0 -20   XYZ
    dof rx ry rz
    limits (-160.0 20.0)
           (-70.0 70.0)
           (-70.0 60.0)
  end
  begin
     id 8 
     name rtibia
     direction -0.34202 -0.939693 0   
     length 6.78101   
     axis 0 0 -20   XYZ
    dof rx
    limits (-10.0 170.0)
 end
 begin
     id 9 
     name rfoot
     direction -0.0992671 -0.272734 0.956955   
     length 1.96168  
     axis -90 -7.62852e-016 -20   XYZ
    dof rx rz
    limits (-45.0 90.0)
           (-20.0 70.0)
  end
  begin
     id 10 
     name rtoes
     direction -1.5356e-011 -4.21891e-011 1   
     length 0.982933   
     axis -90 -7.62852e-016 -20   XYZ
    dof rx
    limits (-90.0 20.0)
  end
  begin
     id 11 
     name lowerback
     direction -0.00596953 0.998668 0.0512524   
     length 1.87557   
     axis 0 0 0   XYZ
    dof rx ry rz
    limits (-20.0 45.0)
           (-30.0 30.0)
           (-30.0 30.0)
  end
  begin
     id 12 
     name upperback
     direction 0.00584879 0.999652 0.0257308   
     length 1.87883   
     axis 0 0 0   XYZ
    dof rx ry rz
    limits (-20.0 45.0)
           (-30.0 30.0)
           (-30.0 30.0)
  end
  begin
     id 13 
     name thorax
     direction 0.010104 0.999947 0.00178881   
     length 1.87779   
     axis 0 0 0   XYZ
    dof rx ry rz
    limits (-20.0 45.0)
           (-30.0 30.0)
           (-30.0 30.0)
  end
  begin
     id 14 
     name lowerneck
     direction 0.0120771 0.995934 -0.0892773   
     length 1.40897   
     axis 0 0 0   XYZ
    dof rx ry rz
    limits (-20.0 45.0)
           (-30.0 30.0)
           (-30.0 30.0)
  end
  begin
     id 15 
     name upperneck
     direction -0.030568 0.999465 -0.0116366   
     length 1.38661   
     axis 0 0 0   XYZ
    dof rx ry rz
    limits (-20.0 45.0)
           (-30.0 30.0)
           (-30.0 30.0)
  end
  begin
     id 16
     name head
     direction -0.0170715 0.999854 -0.00104426  
     length 1.47052  
     axis 0 0 0   XYZ
    dof rx ry rz
    limits (-20.0 45.0)
           (-30.0 30.0)
           (-30.0 30.0)
  end
  begin
     id 17 
     name lclavicle
     direction 0.977763 0.206143 0.038532  
     length 3.02424  
     axis 0 0 0   XYZ
    dof ry rz
    limits (-20.0 10.0)
           (0.0 20.0)
  end
  begin
     id 18 
     name lhumerus
     direction 1 -4.48965e-011 -2.62654e-027   
     length 4.68382   
     axis 180 -30 -90   XYZ
    dof rx ry rz
    limits (-60.0 90.0)
           (-90.0 90.0)
           (-90.0 90.0)
  end
  begin
     id 19
     name lradius
     direction 1 -4.48973e-011 -1.54954e-027   
     length 2.98124   
     axis 180 -30 -90   XYZ
    dof rx
    limits (-10.0 170.0)
  end
  begin
     id 20
     name lwrist
     direction 1 -4.48959e-011 7.20928e-028   
     length 1.49062   
     axis -5.52449e-016 90 90   XYZ
    dof ry
    limits (-180.0 0.0)
 end
  begin
     id 21 
     name lhand
     direction 1 -4.48971e-011 1.44186e-027   
     length 0.707595   
     axis -9.20027e-016 90 90   XYZ
    dof rx rz
    limits (-90.0 90.0)
           (-45.0 45.0)
  end
  begin
     id 22 
     name lfingers
     direction 1 -4.48985e-011 2.88371e-027   
     length 0.570481   
     axis -1.84005e-015 90 90   XYZ
    dof rx
    limits (0.0 90.0)
  end
  begin
     id 23
     name lthumb
     direction 0.707107 -6.34929e-011 0.707107   
     length 0.819101   
     axis -90 45 2.85299e-015   XYZ
    dof rx rz
    limits (-45.0 45.0)
           (-45.0 45.0)
  end
  begin
     id 24 
     name rclavicle
     direction -0.958661 0.284411 -0.00895327   
     length 3.11921  
     axis 0 0 0   XYZ 
    dof ry rz
    limits (-10.0 20.0)
           (-20.0 0.0)
  end
  begin
     id 25 
     name rhumerus
     direction -1 -4.48963e-011 -4.22193e-027  
     length 4.75876   
     axis 180 30 90   XYZ
    dof rx ry rz
    limits (-90.0 60.0)
           (-90.0 90.0)
           (-90.0 90.0)
  end
  begin
     id 26 
     name rradius
     direction -1 -4.48968e-011 -1.07616e-027   
     length 2.93293   
     axis 180 30 90   XYZ
    dof rx
    limits (-10.0 170.0)
  end
  begin
     id 27 
     name rwrist
     direction -1 -4.48965e-011 7.20928e-028   
     length 1.46647   
     axis -5.52449e-016 -90 -90   XYZ
    dof ry
    limits (-180.0 0.0)
  end
  begin
     id 28
     name rhand
     direction -1 -4.48971e-011 1.44186e-027   
     length 0.831748   
     axis -9.20027e-016 -90 -90   XYZ
    dof rx rz
    limits (-90.0 90.0)
           (-45.0 45.0)
  end
  begin
     id 29
     name rfingers
     direction -1 -4.48961e-011 2.88371e-027   
     length 0.670577   
     axis -1.84005e-015 -90 -90   XYZ
    dof rx
    limits (0.0 90.0)
  end
  begin
     id 30
     name rthumb
     direction -0.707107 -6.34929e-011 0.707107   
     length 0.962818   
     axis -90 -45 -2.85299e-015   XYZ
    dof rx rz
    limits (-45.0 45.0)
           (-45.0 45.0)
  end
:hierarchy
  begin
    root lhipjoint rhipjoint lowerback
    lhipjoint lfemur
    lfemur ltibia
    ltibia lfoot
    lfoot ltoes
    rhipjoint rfemur
    rfemur rtibia
    rtibia rfoot
    rfoot rtoes
    lowerback upperback
    upperback thorax
    thorax lowerneck lclavicle rclavicle
    lowerneck upperneck
    upperneck head
    lclavicle lhumerus
    lhumerus lradius
    lradius lwrist
    lwrist lhand lthumb
    lhand lfingers
    rclavicle rhumerus
    rhumerus rradius
    rradius rwrist
    rwrist rhand rthumb
    rhand rfingers
  end

#!OML:ASF E:\id_vita\Project 1\Capture day 1\Session 1\Female.ASF
:FULLY-SPECIFIED
:DEGREES
200
root 44.5066 15.941 -1.92412 -148.793 -79.5197 -142.175
lowerback 10.95 2.5511 -6.09604
upperback 0.396409 2.38858 -2.66095
thorax -5.87519 1.2699 0.251542
lowerneck -10.3276 3.68014 -2.54141
upperneck -30.8892 3.70167 -0.208068
head -8.04781 1.21892 0.362813
rclavicle 2.06736e-014 3.11098e-014
rhumerus 35.389 23.9115 -81.9102
rradius 48.924
rwrist 23.1693
rhand -49.8589 74.9734
rfingers 7.12502
rthumb -22.4537 46.2586
lclavicle 2.06736e-014 3.11098e-014
lhumerus 45.6793 -11.2866 45.1499
lradius 41.4711
lwrist -29.1726
lhand -52.7007 37.7074
lfingers 7.12502
lthumb -25.179 66.0666
rfemur -63.0128 3.11365 34.8604
rtibia 10.8993
rfoot -13.9152 -3.88084
rtoes -10.2755
lfemur -97.2455 5.57449 9.70283
ltibia 39.5099
lfoot 2.39763 15.6115
ltoes -1.96161
201
root 44.4919 15.917 -1.92621 -149.559 -79.3193 -140.984
lowerback 10.9319 2.45761 -6.12765
upperback 0.270891 2.25604 -2.68484
thorax -5.99167 1.21048 0.262534
lowerneck -10.6888 3.70311 -2.5641
upperneck -30.7394 3.77237 -0.0188231
head -7.94252 1.23505 0.434916
rclavicle 3.02153e-014 6.39093e-014
rhumerus 35.3205 24.3805 -81.846
rradius 49.3878
rwrist 23.2147
rhand -50.0544 74.4148
rfingers 7.12502
rthumb -22.6413 45.7228
lclavicle 3.02153e-014 6.39093e-014
lhumerus 44.8953 -11.1514 44.4994
lradius 42.3302
lwrist -28.7742
lhand -52.8768 38.418
lfingers 7.12502
lthumb -25.3477 66.7534
rfemur -63.4158 3.12772 35.5657
rtibia 11.0481
rfoot -14.3173 -3.38064
rtoes -10.541
lfemur -97.8566 6.288 8.72688
ltibia 40.0366
lfoot 2.19843 14.4645
ltoes -3.06549
202
root 44.4746 15.901 -1.92693 -149.967 -79.1639 -140.341
lowerback 10.9884 2.45362 -6.18385
upperback 0.304939 2.23159 -2.77183
thorax -5.98505 1.19668 0.205235
lowerneck -10.8588 3.6706 -2.21171
upperneck -30.815 3.66098 -0.151912
head -7.92965 1.14003 0.336854
rclavicle -3.97569e-015 4.37326e-014
rhumerus 35.5802 24.481 -81.6083
rradius 49.8073
rwrist 22.8042
rhand -50.0435 74.8803
rfingers 7.12502
rthumb -22.6308 46.187
lclavicle -3.97569e-015 4.37326e-014
lhumerus 44.6456 -11.0109 43.9497
lradius 43.3199
lwrist -27.3487
lhand -53.4849 37.3468
lfingers 7.12502
lthumb -25.9302 65.5982
rfemur -63.5796 2.97028 36.2523
rtibia 11.1751
rfoot -14.84 -2.79303
rtoes -10.1929
lfemur -98.345 6.81077 7.66026
ltibia 40.5815
lfoot 1.8766 13.3559
ltoes -4.39257
203
root 44.4523 15.8883 -1.92679 -150.969 -78.9574 -139.284
lowerback 11.2375 2.50282 -6.27925
upperback 0.304413 2.26137 -2.75686
thorax -6.13202 1.21579 0.258619
lowerneck -10.9278 3.70015 -2.17691
upperneck -30.8619 3.67682 -0.233272
head -7.93355 1.14631 0.304014
rclavicle -3.10104e-014 -4.37326e-014
rhumerus 35.829 24.7471 -81.0774
rradius 49.8522
rwrist 23.2125
rhand -46.899 62.8663
rfingers 7.12502
rthumb -19.6102 33.8353
lclavicle -3.10104e-014 -4.37326e-014
lhumerus 44.1301 -10.9104 43.6965
lradius 44.3569
lwrist -26.3655
lhand -53.9879 36.6893
lfingers 7.12502
lthumb -26.4117 64.8694
rfemur -63.5824 3.09017 36.5696
rtibia 11.4622
rfoot -15.2216 -2.71186
rtoes -9.95138
lfemur -98.6114 7.30102 6.74448
ltibia 41.1141
lfoot 1.48237 12.3264
ltoes -5.14516
204
root 44.4389 15.8676 -1.92573 -151.952 -78.7778 -138
lowerback 11.1309 2.51873 -6.18077
upperback 0.317642 2.30087 -2.81938
thorax -6.0534 1.22968 0.136344
lowerneck -10.8933 3.76365 -2.33705
upperneck -30.9574 3.81094 -0.105742
head -7.98184 1.21918 0.369665
rclavicle -4.05521e-014 -7.25564e-014
rhumerus 35.8 24.7942 -80.8355
rradius 50.572
rwrist 23.1805
rhand -46.7804 63.2161
rfingers 7.12502
rthumb -19.4962 34.1735
lclavicle -4.05521e-014 -7.25564e-014
lhumerus 43.699 -10.8259 43.205
lradius 45.4067
lwrist -25.9325
lhand -54.2324 37.0459
lfingers 7.12502
lthumb -26.6457 65.1907
rfemur -63.945 3.57511 36.4817
rtibia 11.854
rfoot -15.2873 -3.03593
rtoes -9.09868
lfemur -99.1291 7.88069 6.03057
ltibia 41.633
lfoot 1.38398 11.4462
ltoes -5.40983
205
root 44.4283 15.8491 -1.92722 -152.556 -78.6348 -137.154
lowerback 11.1146 2.51732 -6.14417
upperback 0.261314 2.29962 -2.86635
thorax -6.10063 1.22932 0.0655052
lowerneck -10.6426 3.73922 -2.47372
upperneck -31.0557 3.83719 0.102392
head -8.06451 1.23348 0.459015
rclavicle 2.38542e-015 -3.57812e-014
rhumerus 35.5351 24.8871 -80.7616
rradius 51.2253
rwrist 23.185
rhand -46.6123 63.3869
rfingers 7.12502
rthumb -19.3345 34.3281
lclavicle 2.38542e-015 -3.57812e-014
lhumerus 43.3136 -10.8028 42.7912
lradius 46.3853
lwrist -25.007
lhand -54.5647 36.6893
lfingers 7.12502
lthumb -26.9638 64.7853
rfemur -64.2646 3.78854 36.674
rtibia 12.2624
rfoot -15.5871 -2.97644
rtoes -7.74986
lfemur -99.6492 8.39531 5.11458
ltibia 42.1369
lfoot 1.17871 10.5128
ltoes -5.53702
206
root 44.4117 15.8354 -1.9309 -153.477 -78.3265 -136.253
lowerback 11.3448 2.62039 -6.2651
upperback 0.167593 2.39783 -2.83296
thorax -6.34176 1.28715 0.137508
lowerneck -9.8748 3.63866 -2.74088
upperneck -31.3527 3.76398 0.336985
head -8.30371 1.21522 0.575863
rclavicle 5.24792e-014 7.65321e-014
rhumerus 35.1329 25.0212 -80.6472
rradius 51.7702
rwrist 23.0935
rhand -46.565 63.9285
rfingers 7.12502
rthumb -19.2891 34.8651
lclavicle 5.24792e-014 7.65321e-014
lhumerus 42.7995 -10.9147 42.4864
lradius 47.467
lwrist -23.5352
lhand -54.8466 35.7607
lfingers 7.12502
lthumb -27.2334 63.8147
rfemur -64.2217 3.86449 37.1421
rtibia 12.644
rfoot -16.096 -2.69978
rtoes -7.18521
lfemur -99.7986 8.91005 4.24165
ltibia 42.6281
lfoot 0.288591 9.70401
ltoes -4.88355
207
root 44.3951 15.8201 -1.93329 -154.096 -78.1127 -135.551
lowerback 11.3946 2.59765 -6.24244
upperback 0.309206 2.35563 -2.99507
thorax -6.2093 1.25559 -0.035481
lowerneck -10.3969 3.71601 -2.53314
upperneck -31.3469 3.87661 0.436551
head -8.21722 1.22294 0.579575
rclavicle -9.38264e-014 -1.18476e-013
rhumerus 35.4217 25.0701 -80.689
rradius 52.1637
rwrist 23.0563
rhand -46.6072 64.4422
rfingers 7.12502
rthumb -19.3297 35.3829
lclavicle -9.38264e-014 -1.18476e-013
lhumerus 42.5671 -10.5942 41.8189
lradius 48.7777
lwrist -21.7347
lhand -54.9243 28.0228
lfingers 7.12502
lthumb -27.3078 56.0652
rfemur -64.3468 3.98311 37.4336
rtibia 13.062
rfoot -16.4889 -2.65868
rtoes -6.90419
lfemur -100.08 9.33315 3.58389
ltibia 43.1257
lfoot 0.09754 9.12433
ltoes -4.93571
208
root 44.3772 15.808 -1.92609 -154.831 -77.8858 -134.798
lowerback 11.7201 2.61061 -6.2595
upperback 0.294392 2.33554 -3.02127
thorax -6.40707 1.24799 -0.0650896
lowerneck -10.6874 3.85494 -2.47888
upperneck -31.2914 4.05335 0.357675
head -8.15169 1.30566 0.541476
rclavicle 5.00937e-014 2.00773e-014
rhumerus 35.4236 25.3939 -80.4211
rradius 52.6904
rwrist 22.7839
rhand -46.227 63.9365
rfingers 7.12502
rthumb -18.964 34.8409
lclavicle 5.00937e-014 2.00773e-014
lhumerus 41.9938 -10.4963 41.6298
lradius 49.5557
lwrist -21.8217
lhand -54.64 31.4316
lfingers 7.12502
lthumb -27.0358 59.5164
rfemur -64.3456 3.94678 37.8827
rtibia 13.364
rfoot -16.9777 -2.37044
rtoes -6.38059
lfemur -100.263 9.62076 3.27352
ltibia 43.6424
lfoot -0.359675 8.92546
ltoes -4.57895
209
root 44.3687 15.7763 -1.93193 -155.575 -77.5019 -133.365
lowerback 10.9249 2.76523 -6.4266
upperback 0.177877 2.593 -3.01965
thorax -6.10392 1.37934 0.0167975
lowerneck -10.5049 3.86156 -2.36011
upperneck -31.4169 4.03845 0.259223
head -8.22034 1.2926 0.48491
rclavicle 9.70069e-014 7.71285e-014
rhumerus 35.2731 25.391 -80.0945
rradius 53.2264
rwrist 22.5447
rhand -46.3843 64.6387
rfingers 7.12502
rthumb -19.1153 35.5581
lclavicle 9.70069e-014 7.71285e-014
lhumerus 41.9167 -10.6049 41.6295
lradius 50.2368
lwrist -21.3299
lhand -54.4191 31.6709
lfingers 7.12502
lthumb -26.8244 59.7884
rfemur -65.0067 4.46627 38.2552
rtibia 13.7725
rfoot -17.324 -2.2219
rtoes -6.00127
lfemur -101.093 10.5079 2.63524
ltibia 44.1143
lfoot -0.710997 8.38618
ltoes -4.17613
210
root 44.3503 15.7546 -1.93201 -156.574 -77.1479 -132.283
lowerback 10.9617 2.9089 -6.4909
upperback 0.191406 2.77155 -3.02358
thorax -6.12254 1.46814 0.016756
lowerneck -10.4619 3.77248 -2.43868
upperneck -31.4691 3.96117 0.474136
head -8.25115 1.24312 0.574887
rclavicle -7.55382e-014 -2.14687e-014
rhumerus 35.2474 25.4282 -79.863
rradius 53.6573
rwrist 22.4346
rhand -46.3826 64.7029
rfingers 7.12502
rthumb -19.1136 35.6221
lclavicle -7.55382e-014 -2.14687e-014
lhumerus 41.3349 -10.5907 41.7596
lradius 50.9588
lwrist -22.0729
lhand -55.2219 36.697
lfingers 7.12502
lthumb -27.5924 64.6942
rfemur -65.0053 4.7908 38.474
rtibia 14.0593
rfoot -17.5639 -2.24638
rtoes -5.70872
lfemur -101.32 11.0404 2.05914
ltibia 44.574
lfoot -1.30329 7.83872
ltoes -3.82152
211
root 44.3377 15.7309 -1.92224 -156.447 -77.3739 -132.223
lowerback 11.0541 2.80403 -6.3195
upperback 0.139367 2.64337 -3.03715
thorax -6.21417 1.4032 -0.077312
lowerneck -10.5451 3.69771 -2.39575
upperneck -31.4617 3.8648 0.565017
head -8.23411 1.1794 0.604259
rclavicle -2.14687e-014 -2.10712e-014
rhumerus 35.2404 25.47 -79.6589
rradius 54.0875
rwrist 22.2558
rhand -46.05 64.8115
rfingers 7.12502
rthumb -18.7937 35.6994
lclavicle -2.14687e-014 -2.10712e-014
lhumerus 41.0204 -10.4764 41.7456
lradius 52.1897
lwrist -20.2393
lhand -54.067 49.5316
lfingers 7.12502
lthumb -26.4874 77.7004
rfemur -65.4671 4.80191 38.2698
rtibia 14.555
rfoot -17.7094 -2.76539
rtoes -5.52303
lfemur -101.905 10.9912 1.48985
ltibia 44.9215
lfoot -1.09807 7.46698
ltoes -4.00046
212
root 44.3162 15.7199 -1.92307 -157.387 -77.016 -131.318
lowerback 11.2552 2.88448 -6.39819
upperback 0.122459 2.71651 -3.06181
thorax -6.352 1.44234 -0.0829261
lowerneck -10.5996 3.76366 -2.27694
upperneck -31.4939 3.93539 0.499124
head -8.23414 1.20239 0.559753
rclavicle 9.30312e-014 8.38871e-014
rhumerus 35.1844 25.5471 -79.6803
rradius 54.488
rwrist 22.2262
rhand -45.7157 66.1838
rfingers 7.12502
rthumb -18.4723 37.0409
lclavicle 9.30312e-014 8.38871e-014
lhumerus 40.7521 -10.3676 41.4352
lradius 53.0396
lwrist -19.0424
lhand -53.3743 52.4748
lfingers 7.12502
lthumb -25.8242 80.7417
rfemur -65.3651 4.99617 38.5687
rtibia 14.9085
rfoot -18.0954 -2.70148
rtoes -5.39393
lfemur -101.886 11.3712 1.3375
ltibia 45.3177
lfoot -1.23238 7.46067
ltoes -4.27748
213
root 44.2983 15.6982 -1.91459 -157.047 -77.2001 -131.392
lowerback 11.1128 2.69608 -6.23464
upperback 0.103108 2.49653 -3.1218
thorax -6.27109 1.3284 -0.192579
lowerneck -10.6986 3.86859 -2.36478
upperneck -31.5031 4.11584 0.598498
head -8.22973 1.2904 0.603974
rclavicle -1.98785e-014 -5.82439e-014
rhumerus 35.149 25.669 -79.725
rradius 54.9461
rwrist 22.3096
rhand -46.2516 65.0922
rfingers 7.12502
rthumb -18.9877 35.999
lclavicle -1.98785e-014 -5.82439e-014
lhumerus 40.332 -10.1768 41.2462
lradius 53.8117
lwrist -18.5798
lhand -53.125 51.542
lfingers 7.12502
lthumb -25.5855 79.8434
rfemur -65.8145 4.99738 38.3967
rtibia 15.3108
rfoot -18.1853 -3.11092
rtoes -5.25433
lfemur -102.452 11.3263 0.924564
ltibia 45.6755
lfoot -1.59904 7.34118
ltoes -3.44554
214
root 44.2749 15.6827 -1.91209 -158.164 -76.7521 -130.295
lowerback 11.2037 2.84837 -6.28991
upperback 0.147674 2.68513 -3.1031
thorax -6.2872 1.42129 -0.177345
lowerneck -10.7063 3.86822 -2.45602
upperneck -31.5688 4.14367 0.714878
head -8.25794 1.30076 0.65928
rclavicle 7.95139e-015 -7.95139e-015
rhumerus 35.0907 25.7235 -79.482
rradius 55.4718
rwrist 22.2157
rhand -46.2308 66.733
rfingers 7.12502
rthumb -18.9677 37.6378
lclavicle 7.95139e-015 -7.95139e-015
lhumerus 39.9573 -10.0687 41.4711
lradius 54.5049
lwrist -18.4868
lhand -52.8001 51.506
lfingers 7.12502
lthumb -25.2743 79.8518
rfemur -65.6422 5.00892 39.1542
rtibia 15.5859
rfoot -18.7415 -2.46676
rtoes -4.51273
lfemur -102.427 11.8223 0.780978
ltibia 46.1524
lfoot -2.13593 7.27655
ltoes -1.96256
